<svg id="Layer_1" data-name="Layer 1" xmlns="http://www.w3.org/2000/svg" viewBox="0 0 64 64"><defs><style>.cls-1{fill:#f26c4f;fill-rule:evenodd;}</style></defs><path class="cls-1" d="M22.6,20.27a9.11,9.11,0,0,1,0-18.22H40.75a9.11,9.11,0,0,1,0,18.22Z"/><path class="cls-1" d="M22.36,41.13h9.28V22.9H22.36a9.12,9.12,0,0,0,0,18.23"/><path class="cls-1" d="M41.64,23.09a9.11,9.11,0,1,0,9.11,9.11,9.11,9.11,0,0,0-9.11-9.11"/><path class="cls-1" d="M31.62,43.73H22.18v0a9.1,9.1,0,1,0,9.44,9.55h0v-.1c0-.12,0-.24,0-.36s0-.24,0-.36Z"/></svg>