<?xml version="1.0" encoding="utf-8"?>
<!-- Generator: Adobe Illustrator 25.3.0, SVG Export Plug-In . SVG Version: 6.00 Build 0)  -->
<svg version="1.1" id="Layer_1" xmlns="http://www.w3.org/2000/svg" xmlns:xlink="http://www.w3.org/1999/xlink" x="0px" y="0px"
	 viewBox="0 0 64 64" style="enable-background:new 0 0 64 64;" xml:space="preserve">
<style type="text/css">
	.st0{fill:#F26C4F;}
	.st1{fill-rule:evenodd;clip-rule:evenodd;fill:#F26C4F;}
</style>
<g>
	<path class="st0" d="M85,18L71,32l14,14c0.7,0.7,0.7,1.7,0,2.4c-0.7,0.7-1.7,0.7-2.4,0L67.4,33.2c-0.7-0.7-0.7-1.7,0-2.4l15.2-15.2
		c0.7-0.7,1.7-0.7,2.4,0C85.7,16.3,85.7,17.3,85,18L85,18z"/>
	<path class="st0" d="M112.1,46l14-14l-14-14c-0.7-0.7-0.7-1.7,0-2.4c0.7-0.7,1.7-0.7,2.4,0l15.2,15.2c0.7,0.7,0.7,1.7,0,2.4
		l-15.2,15.2c-0.7,0.7-1.7,0.7-2.4,0C111.4,47.7,111.4,46.7,112.1,46L112.1,46z"/>
	<g>
		<path class="st0" d="M94,51.5c-0.2,0.6-0.8,0.9-1.4,0.8c-0.6-0.2-0.9-0.8-0.8-1.4l11.3-38.4c0.2-0.6,0.8-0.9,1.4-0.8
			c0.6,0.2,0.9,0.8,0.8,1.4L94,51.5z"/>
		<path class="st0" d="M92.9,52.9c-0.2,0-0.3,0-0.5-0.1c-0.5-0.1-0.8-0.4-1.1-0.8c-0.2-0.4-0.3-0.9-0.1-1.3l11.3-38.4
			c0.1-0.5,0.4-0.8,0.8-1.1c0.4-0.2,0.9-0.3,1.3-0.1c0.5,0.1,0.8,0.4,1.1,0.8c0.2,0.4,0.3,0.9,0.1,1.3L94.6,51.7
			c-0.1,0.5-0.4,0.8-0.8,1.1C93.5,52.9,93.2,52.9,92.9,52.9z M104.2,12.3c-0.1,0-0.2,0-0.2,0.1c-0.1,0.1-0.2,0.2-0.2,0.3L92.4,51
			c0,0.1,0,0.3,0,0.4c0.1,0.1,0.2,0.2,0.3,0.2c0.1,0,0.3,0,0.4,0c0.1-0.1,0.2-0.2,0.2-0.3L104.7,13c0-0.1,0-0.3,0-0.4
			c-0.1-0.1-0.2-0.2-0.3-0.2C104.3,12.3,104.2,12.3,104.2,12.3z"/>
	</g>
</g>
<g>
	<g>
		<path class="st1" d="M22.6,20.3c-5,0-9.1-4.1-9.1-9.1c0-5,4.1-9.1,9.1-9.1h18.1c5,0,9.1,4.1,9.1,9.1c0,5-4.1,9.1-9.1,9.1H22.6z"/>
		<path class="st1" d="M22.4,41.1h9.3V22.9h-9.3c-2.5,0-4.8,1-6.4,2.7c-1.7,1.7-2.7,3.9-2.7,6.4C13.3,37,17.4,41.1,22.4,41.1"/>
		<path class="st1" d="M41.6,23.1c-5,0-9.1,4.1-9.1,9.1c0,5,4.1,9.1,9.1,9.1c5,0,9.1-4.1,9.1-9.1C50.7,27.2,46.7,23.1,41.6,23.1"/>
		<path class="st1" d="M31.6,43.7h-9.4v0c-4.9,0.2-8.8,4.2-8.8,9.1c0,5,4.1,9.1,9.1,9.1c4.9,0,8.8-3.8,9.1-8.6h0v-0.1
			c0-0.1,0-0.2,0-0.4c0-0.1,0-0.2,0-0.4L31.6,43.7z"/>
	</g>
</g>
<rect x="8.2" y="-66.1" class="st0" width="176" height="40"/>
<g>
	<g>
		<path class="st0" d="M187.9,3.6H143c-1.6,0-3.1,0.6-4.2,1.8c-1.1,1.1-1.8,2.6-1.8,4.2v33.3c0,1.6,0.6,3.1,1.8,4.2
			c1.1,1.1,2.6,1.8,4.2,1.8h13.3c-0.6,2.1-1.7,3.9-3.4,5.3h-1.1c-0.9,0-1.7,0.4-2.4,1c-0.6,0.6-1,1.5-1,2.4v0.9c0,0.5,0.2,1,0.6,1.4
			c0.4,0.4,0.9,0.6,1.4,0.6h29.7c0.5,0,1-0.2,1.4-0.6c0.4-0.4,0.6-0.9,0.6-1.4v-0.9c0-0.9-0.4-1.7-1-2.4s-1.5-1-2.4-1h-1.1
			c-1.6-1.4-2.8-3.3-3.4-5.3h13.3c1.6,0,3.1-0.6,4.2-1.8c1.1-1.1,1.8-2.6,1.8-4.2V9.6c0-1.6-0.6-3.1-1.8-4.2
			C191,4.2,189.4,3.6,187.9,3.6L187.9,3.6z M138.4,9.6c0-1.2,0.5-2.4,1.4-3.3c0.9-0.9,2.1-1.4,3.3-1.4h29.5V40h-34.2L138.4,9.6z
			 M179,55.5c0.5,0,1,0.2,1.4,0.6c0.4,0.4,0.6,0.9,0.6,1.4v0.9c0,0.4-0.3,0.7-0.7,0.7h-29.7c-0.4,0-0.7-0.3-0.7-0.7v-0.9
			c0-0.5,0.2-1,0.6-1.4c0.4-0.4,0.9-0.6,1.4-0.6L179,55.5z M176,54.2h-21.1c1.4-1.5,2.3-3.3,2.8-5.3h15.4
			C173.6,50.8,174.6,52.7,176,54.2L176,54.2z M192.5,42.9c0,1.2-0.5,2.4-1.4,3.3c-0.9,0.9-2.1,1.4-3.3,1.4H143
			c-1.2,0-2.4-0.5-3.3-1.4c-0.9-0.9-1.4-2.1-1.4-3.3v-1.6h54.1L192.5,42.9z M192.5,40h-18.6V4.9h14c1.2,0,2.4,0.5,3.3,1.4
			c0.9,0.9,1.4,2.1,1.4,3.3L192.5,40z"/>
		<path class="st0" d="M180.3,60.8h-29.7c-0.6,0-1.2-0.2-1.7-0.7c-0.4-0.4-0.7-1-0.7-1.7v-0.9c0-1,0.4-1.9,1.1-2.6
			c0.7-0.7,1.6-1.1,2.6-1.1h1c1.4-1.2,2.4-2.8,3-4.6H143c-1.7,0-3.3-0.7-4.5-1.9c-1.2-1.2-1.9-2.8-1.9-4.5V9.6
			c0-1.7,0.7-3.3,1.9-4.5c1.2-1.2,2.8-1.9,4.5-1.9h44.8c1.7,0,3.3,0.7,4.5,1.9c1.2,1.2,1.9,2.8,1.9,4.5v33.3c0,1.7-0.7,3.3-1.9,4.5
			c-1.2,1.2-2.8,1.9-4.5,1.9H175c0.6,1.8,1.6,3.3,3,4.6h1c1,0,1.9,0.4,2.6,1.1c0.7,0.7,1.1,1.6,1.1,2.6v0.9c0,0.6-0.3,1.2-0.7,1.7
			C181.5,60.5,180.9,60.8,180.3,60.8z M151.9,54.6c-0.8,0-1.5,0.3-2.1,0.9c-0.6,0.6-0.9,1.3-0.9,2.1v0.9c0,0.4,0.2,0.8,0.5,1.1
			c0.3,0.3,0.7,0.5,1.1,0.5h29.7c0.4,0,0.8-0.2,1.1-0.5c0.3-0.3,0.5-0.7,0.5-1.1v-0.9c0-0.8-0.3-1.5-0.9-2.1
			c-0.6-0.6-1.3-0.9-2.1-0.9h-1.2l-0.1-0.1c-1.7-1.5-2.9-3.4-3.5-5.5l-0.1-0.5h13.8c1.5,0,2.9-0.6,4-1.6c1.1-1.1,1.6-2.5,1.6-4V9.6
			c0-1.5-0.6-2.9-1.6-4c-1.1-1.1-2.5-1.6-4-1.6H143c-1.5,0-2.9,0.6-4,1.6c-1.1,1.1-1.6,2.5-1.6,4v33.3c0,1.5,0.6,2.9,1.6,4
			c1.1,1.1,2.5,1.6,4,1.6h13.8l-0.1,0.5c-0.6,2.1-1.8,4-3.5,5.5l-0.1,0.1H151.9z M180.3,59.4h-29.7c-0.6,0-1-0.5-1-1v-0.9
			c0-0.6,0.3-1.2,0.7-1.7c0.4-0.4,1-0.7,1.7-0.7H179c0.6,0,1.2,0.2,1.7,0.7c0.4,0.4,0.7,1.1,0.7,1.7v0.9
			C181.4,59,180.9,59.4,180.3,59.4z M151.9,55.9c-0.4,0-0.8,0.2-1.1,0.5c-0.3,0.3-0.5,0.7-0.5,1.1v0.9c0,0.2,0.1,0.3,0.3,0.3h29.7
			c0.2,0,0.3-0.1,0.3-0.3v-0.9c0-0.4-0.2-0.8-0.5-1.1c-0.3-0.3-0.7-0.5-1.1-0.5H151.9z M176.8,54.6h-22.8l0.6-0.6
			c1.3-1.5,2.3-3.2,2.8-5.2l0.1-0.3h16l0.1,0.3c0.5,1.9,1.4,3.7,2.8,5.2L176.8,54.6z M155.7,53.8h19.4c-1.1-1.3-1.9-2.9-2.3-4.6H158
			C157.6,50.9,156.8,52.5,155.7,53.8z M187.9,47.9H143c-1.3,0-2.6-0.5-3.6-1.5c-1-1-1.5-2.2-1.5-3.6v-1.9h54.9v1.9
			c0,1.3-0.5,2.6-1.5,3.6C190.5,47.4,189.2,47.9,187.9,47.9z M138.8,41.7v1.2c0,1.1,0.4,2.2,1.3,3c0.8,0.8,1.9,1.3,3,1.3h44.8
			c1.1,0,2.2-0.4,3-1.3c0.8-0.8,1.3-1.9,1.3-3v-1.2H138.8z M192.9,40.4h-19.4V4.6h14.4c1.3,0,2.6,0.5,3.6,1.5c0.9,1,1.5,2.2,1.5,3.6
			V40.4z M174.3,39.6h17.9v-30c0-1.1-0.4-2.2-1.3-3c-0.8-0.8-1.9-1.3-3-1.3h-13.6V39.6z M172.9,40.4H138V9.6c0-1.3,0.5-2.6,1.5-3.6
			c1-0.9,2.2-1.5,3.6-1.5h29.9V40.4z M138.8,39.6h33.4V5.3H143c-1.1,0-2.2,0.4-3,1.3c-0.8,0.8-1.3,1.9-1.3,3V39.6z"/>
	</g>
	<g>
		<path class="st0" d="M166.3,44.4c0,0.5-0.4,0.9-0.9,0.9c-0.5,0-0.9-0.4-0.9-0.9s0.4-0.9,0.9-0.9C165.9,43.5,166.3,43.9,166.3,44.4
			"/>
		<path class="st0" d="M165.4,45.7c-0.7,0-1.3-0.6-1.3-1.3c0-0.7,0.6-1.3,1.3-1.3c0.7,0,1.3,0.6,1.3,1.3
			C166.7,45.1,166.1,45.7,165.4,45.7z M165.4,43.9c-0.3,0-0.5,0.2-0.5,0.5s0.2,0.5,0.5,0.5s0.5-0.2,0.5-0.5S165.7,43.9,165.4,43.9z"
			/>
	</g>
	<g>
		<path class="st0" d="M168.3,7.6h-25.7c-0.5,0-1,0.2-1.4,0.6c-0.4,0.4-0.6,0.9-0.6,1.4V22c0,0.5,0.2,1,0.6,1.4
			c0.4,0.4,0.9,0.6,1.4,0.6h25.7c0.5,0,1-0.2,1.4-0.6c0.4-0.4,0.6-0.9,0.6-1.4V9.6c0-0.5-0.2-1-0.6-1.4
			C169.4,7.8,168.9,7.6,168.3,7.6z M169,22c0,0.4-0.3,0.7-0.7,0.7h-25.7c-0.4,0-0.7-0.3-0.7-0.7V9.6c0-0.4,0.3-0.7,0.7-0.7h25.7
			c0.4,0,0.7,0.3,0.7,0.7V22z"/>
		<path class="st0" d="M168.3,24.4h-25.7c-0.6,0-1.2-0.3-1.7-0.7c-0.4-0.4-0.7-1.1-0.7-1.7V9.6c0-0.6,0.2-1.2,0.7-1.7
			c0.4-0.4,1-0.7,1.7-0.7h25.7c0.6,0,1.2,0.2,1.7,0.7c0.4,0.4,0.7,1,0.7,1.7V22c0,0.6-0.3,1.2-0.7,1.7
			C169.6,24.1,169,24.4,168.3,24.4z M142.6,8c-0.4,0-0.8,0.2-1.1,0.5c-0.3,0.3-0.5,0.7-0.5,1.1V22c0,0.4,0.2,0.8,0.5,1.1
			c0.3,0.3,0.7,0.5,1.1,0.5h25.7c0.4,0,0.8-0.2,1.1-0.5c0.3-0.3,0.5-0.7,0.5-1.1V9.6c0-0.4-0.2-0.8-0.5-1.1
			c-0.3-0.3-0.7-0.5-1.1-0.5H142.6z M168.3,23.1h-25.7c-0.6,0-1-0.5-1-1V9.6c0-0.6,0.5-1,1-1h25.7c0.6,0,1,0.5,1,1V22
			C169.4,22.6,168.9,23.1,168.3,23.1z M142.6,9.3c-0.2,0-0.3,0.1-0.3,0.3V22c0,0.2,0.1,0.3,0.3,0.3h25.7c0.2,0,0.3-0.1,0.3-0.3V9.6
			c0-0.2-0.1-0.3-0.3-0.3H142.6z"/>
	</g>
	<g>
		<path class="st0" d="M152.4,26.2h-9.8c-0.5,0-1,0.2-1.4,0.6c-0.4,0.4-0.6,0.9-0.6,1.4v7.1c0,0.5,0.2,1,0.6,1.4
			c0.4,0.4,0.9,0.6,1.4,0.6h9.8c0.5,0,1-0.2,1.4-0.6c0.4-0.4,0.6-0.9,0.6-1.4v-7.1c0-0.5-0.2-1-0.6-1.4
			C153.4,26.4,152.9,26.2,152.4,26.2z M153,35.3c0,0.4-0.3,0.7-0.7,0.7h-9.8c-0.4,0-0.7-0.3-0.7-0.7v-7.1c0-0.4,0.3-0.7,0.7-0.7h9.8
			c0.4,0,0.7,0.3,0.7,0.7V35.3z"/>
		<path class="st0" d="M152.4,37.7h-9.8c-0.6,0-1.2-0.3-1.7-0.7c-0.4-0.4-0.7-1-0.7-1.7v-7.1c0-0.6,0.3-1.2,0.7-1.7
			c0.4-0.4,1.1-0.7,1.7-0.7h9.8c0.6,0,1.2,0.3,1.7,0.7c0.4,0.4,0.7,1,0.7,1.7v7.1c0,0.6-0.2,1.2-0.7,1.7
			C153.6,37.4,153,37.7,152.4,37.7z M142.6,26.6c-0.4,0-0.8,0.2-1.1,0.5c-0.3,0.3-0.5,0.7-0.5,1.1v7.1c0,0.4,0.2,0.8,0.5,1.1
			c0.3,0.3,0.7,0.5,1.1,0.5h9.8c0.4,0,0.8-0.2,1.1-0.5c0.3-0.3,0.5-0.7,0.5-1.1v-7.1c0-0.4-0.2-0.8-0.5-1.1
			c-0.3-0.3-0.7-0.5-1.1-0.5H142.6z M152.4,36.4h-9.8c-0.6,0-1-0.5-1-1v-7.1c0-0.6,0.5-1,1-1h9.8c0.6,0,1,0.5,1,1v7.1
			C153.4,35.9,152.9,36.4,152.4,36.4z M142.6,27.9c-0.2,0-0.3,0.1-0.3,0.3v7.1c0,0.2,0.1,0.3,0.3,0.3h9.8c0.2,0,0.3-0.1,0.3-0.3
			v-7.1c0-0.2-0.1-0.3-0.3-0.3H142.6z"/>
	</g>
	<g>
		<path class="st0" d="M168.3,26.2h-9.8c-0.5,0-1,0.2-1.4,0.6c-0.4,0.4-0.6,0.9-0.6,1.4v7.1c0,0.5,0.2,1,0.6,1.4
			c0.4,0.4,0.9,0.6,1.4,0.6h9.8c0.5,0,1-0.2,1.4-0.6c0.4-0.4,0.6-0.9,0.6-1.4v-7.1c0-0.5-0.2-1-0.6-1.4
			C169.4,26.4,168.9,26.2,168.3,26.2z M169,35.3c0,0.4-0.3,0.7-0.7,0.7h-9.8c-0.4,0-0.7-0.3-0.7-0.7v-7.1c0-0.4,0.3-0.7,0.7-0.7h9.8
			c0.4,0,0.7,0.3,0.7,0.7V35.3z"/>
		<path class="st0" d="M168.3,37.7h-9.8c-0.6,0-1.2-0.3-1.7-0.7c-0.4-0.4-0.7-1-0.7-1.7v-7.1c0-0.6,0.3-1.2,0.7-1.7
			c0.4-0.4,1.1-0.7,1.7-0.7h9.8c0.6,0,1.2,0.3,1.7,0.7c0.4,0.4,0.7,1,0.7,1.7v7.1c0,0.6-0.2,1.2-0.7,1.7
			C169.6,37.4,169,37.7,168.3,37.7z M158.6,26.6c-0.4,0-0.8,0.2-1.1,0.5c-0.3,0.3-0.5,0.7-0.5,1.1v7.1c0,0.4,0.2,0.8,0.5,1.1
			c0.3,0.3,0.7,0.5,1.1,0.5h9.8c0.4,0,0.8-0.2,1.1-0.5c0.3-0.3,0.5-0.7,0.5-1.1v-7.1c0-0.4-0.2-0.8-0.5-1.1
			c-0.3-0.3-0.7-0.5-1.1-0.5H158.6z M168.3,36.4h-9.8c-0.6,0-1-0.5-1-1v-7.1c0-0.6,0.5-1,1-1h9.8c0.6,0,1,0.5,1,1v7.1
			C169.4,35.9,168.9,36.4,168.3,36.4z M158.6,27.9c-0.2,0-0.3,0.1-0.3,0.3v7.1c0,0.2,0.1,0.3,0.3,0.3h9.8c0.2,0,0.3-0.1,0.3-0.3
			v-7.1c0-0.2-0.1-0.3-0.3-0.3H158.6z"/>
	</g>
	<g>
		<path class="st0" d="M188.7,36h-11.1c-0.4,0-0.7,0.3-0.7,0.7c0,0.4,0.3,0.7,0.7,0.7h11.1c0.4,0,0.7-0.3,0.7-0.7
			C189.4,36.3,189.1,36,188.7,36z"/>
		<path class="st0" d="M188.7,37.7h-11.1c-0.6,0-1-0.5-1-1c0-0.6,0.5-1,1-1h11.1c0.6,0,1,0.5,1,1C189.8,37.2,189.3,37.7,188.7,37.7z
			 M177.6,36.4c-0.2,0-0.3,0.1-0.3,0.3s0.1,0.3,0.3,0.3h11.1c0.2,0,0.3-0.1,0.3-0.3s-0.1-0.3-0.3-0.3H177.6z"/>
	</g>
	<g>
		<path class="st0" d="M188.7,31.6h-11.1c-0.4,0-0.7,0.3-0.7,0.7c0,0.4,0.3,0.7,0.7,0.7h11.1c0.4,0,0.7-0.3,0.7-0.7
			C189.4,31.9,189.1,31.6,188.7,31.6z"/>
		<path class="st0" d="M188.7,33.3h-11.1c-0.6,0-1-0.5-1-1s0.5-1,1-1h11.1c0.6,0,1,0.5,1,1S189.3,33.3,188.7,33.3z M177.6,31.9
			c-0.2,0-0.3,0.1-0.3,0.3s0.1,0.3,0.3,0.3h11.1c0.2,0,0.3-0.1,0.3-0.3s-0.1-0.3-0.3-0.3H177.6z"/>
	</g>
	<g>
		<path class="st0" d="M188.7,27.1h-11.1c-0.4,0-0.7,0.3-0.7,0.7s0.3,0.7,0.7,0.7h11.1c0.4,0,0.7-0.3,0.7-0.7S189.1,27.1,188.7,27.1
			z"/>
		<path class="st0" d="M188.7,28.8h-11.1c-0.6,0-1-0.5-1-1s0.5-1,1-1h11.1c0.6,0,1,0.5,1,1S189.3,28.8,188.7,28.8z M177.6,27.5
			c-0.2,0-0.3,0.1-0.3,0.3s0.1,0.3,0.3,0.3h11.1c0.2,0,0.3-0.1,0.3-0.3s-0.1-0.3-0.3-0.3H177.6z"/>
	</g>
	<g>
		<path class="st0" d="M188.7,22.7h-11.1c-0.4,0-0.7,0.3-0.7,0.7c0,0.4,0.3,0.7,0.7,0.7h11.1c0.4,0,0.7-0.3,0.7-0.7
			C189.4,23,189.1,22.7,188.7,22.7z"/>
		<path class="st0" d="M188.7,24.4h-11.1c-0.6,0-1-0.5-1-1c0-0.6,0.5-1,1-1h11.1c0.6,0,1,0.5,1,1C189.8,23.9,189.3,24.4,188.7,24.4z
			 M177.6,23.1c-0.2,0-0.3,0.1-0.3,0.3c0,0.2,0.1,0.3,0.3,0.3h11.1c0.2,0,0.3-0.1,0.3-0.3c0-0.2-0.1-0.3-0.3-0.3H177.6z"/>
	</g>
	<g>
		<path class="st0" d="M181.9,18.4c0.3,0.1,0.7-0.1,0.8-0.4l2.2-6.2c0.1-0.3-0.1-0.7-0.4-0.8s-0.7,0.1-0.8,0.4l-2.2,6.2
			c-0.1,0.2,0,0.3,0,0.5C181.5,18.3,181.7,18.4,181.9,18.4L181.9,18.4z"/>
		<path class="st0" d="M182.1,18.8c-0.1,0-0.2,0-0.3-0.1l0,0c-0.3-0.1-0.5-0.3-0.6-0.5c-0.1-0.3-0.1-0.5,0-0.8l2.2-6.2
			c0.1-0.3,0.3-0.5,0.5-0.6c0.2-0.1,0.5-0.1,0.8,0c0.3,0.1,0.5,0.3,0.6,0.5c0.1,0.3,0.1,0.5,0,0.8l-2.2,6.2
			c-0.1,0.3-0.3,0.5-0.5,0.6C182.4,18.8,182.2,18.8,182.1,18.8z M184.2,11.3c0,0-0.1,0-0.1,0c-0.1,0-0.1,0.1-0.1,0.2l-2.2,6.2
			c0,0.1,0,0.2,0,0.2s0.1,0.1,0.2,0.1h0c0.1,0,0.2,0,0.2,0c0.1,0,0.1-0.1,0.1-0.2l2.2-6.2c0-0.1,0-0.2,0-0.2
			C184.5,11.4,184.4,11.3,184.2,11.3C184.3,11.3,184.3,11.3,184.2,11.3z"/>
	</g>
	<g>
		<path class="st0" d="M179.8,18.3c0.3-0.2,0.3-0.6,0.1-0.9l-2.1-2.7l2.1-2.7h0c0.2-0.3,0.2-0.7-0.1-0.9c-0.3-0.2-0.7-0.2-0.9,0.1
			l-2.4,3.1c-0.2,0.2-0.2,0.6,0,0.8l2.4,3.1C179.1,18.5,179.5,18.6,179.8,18.3L179.8,18.3z"/>
		<path class="st0" d="M179.4,18.8c-0.3,0-0.6-0.1-0.8-0.4l-2.4-3.1c-0.3-0.4-0.3-0.9,0-1.3l2.4-3.1c0.4-0.5,1-0.5,1.5-0.2
			c0.4,0.3,0.5,1,0.2,1.4l-1.9,2.5l1.9,2.5c0.3,0.5,0.3,1.1-0.2,1.5h0C179.8,18.8,179.6,18.8,179.4,18.8z M179.4,11.3
			c-0.1,0-0.2,0-0.2,0.1l-2.4,3.1c-0.1,0.1-0.1,0.2,0,0.4l2.4,3.1c0.1,0.1,0.3,0.2,0.4,0.1l0,0c0.1-0.1,0.2-0.3,0.1-0.4l-2.2-2.9
			l2.2-2.9c0.1-0.1,0.1-0.3-0.1-0.4C179.5,11.3,179.5,11.3,179.4,11.3z"/>
	</g>
	<g>
		<path class="st0" d="M187.5,11.2c-0.2-0.3-0.6-0.3-0.9-0.1c-0.3,0.2-0.3,0.6-0.1,0.9l2.1,2.7l-2.1,2.7c-0.2,0.3-0.2,0.7,0.1,0.9
			c0.3,0.2,0.7,0.2,0.9-0.1l2.4-3.1h0c0.2-0.2,0.2-0.6,0-0.8L187.5,11.2z"/>
		<path class="st0" d="M187,18.8c-0.2,0-0.4-0.1-0.6-0.2c-0.2-0.2-0.4-0.4-0.4-0.7c0-0.3,0-0.5,0.2-0.8l1.9-2.5l-1.9-2.5
			c-0.2-0.2-0.2-0.5-0.2-0.8c0-0.3,0.2-0.5,0.4-0.7c0.5-0.3,1.1-0.3,1.5,0.2l2.4,3.1c0.3,0.4,0.3,0.9,0,1.3l-2.4,3.1
			c-0.2,0.2-0.4,0.4-0.7,0.4C187.1,18.8,187,18.8,187,18.8z M187,11.3c-0.1,0-0.1,0-0.2,0.1c-0.1,0-0.1,0.1-0.1,0.2
			c0,0.1,0,0.2,0.1,0.2l2.2,2.9l-2.2,2.9c0,0.1-0.1,0.1-0.1,0.2c0,0.1,0,0.1,0.1,0.2c0.1,0,0.1,0.1,0.2,0.1c0.1,0,0.1,0,0.2-0.1
			l2.4-3.1c0.1-0.1,0.1-0.2,0-0.4l-2.4-3.1C187.2,11.3,187.1,11.3,187,11.3z"/>
	</g>
</g>
</svg>
