<svg id="Layer_1" data-name="Layer 1" xmlns="http://www.w3.org/2000/svg" viewBox="0 0 64 64"><defs><style>.cls-1{fill:#f26c4f;}</style></defs><path class="cls-1" d="M12.0187,8.41039a1.66566,1.66566,0,1,1-1.66565-1.66566A1.66568,1.66568,0,0,1,12.0187,8.41039"/><path class="cls-1" d="M17.49073,8.41039a1.66566,1.66566,0,1,1-1.66566-1.66566,1.66568,1.66568,0,0,1,1.66566,1.66566"/><path class="cls-1" d="M22.96049,8.41039a1.66566,1.66566,0,1,1-1.66566-1.66566,1.66568,1.66568,0,0,1,1.66566,1.66566"/><path class="cls-1" d="M56.9769,3.4149H7.0231A3.61237,3.61237,0,0,0,3.41489,7.0231V56.9769A3.61237,3.61237,0,0,0,7.0231,60.5851H56.9769a3.61237,3.61237,0,0,0,3.60821-3.6082V7.0231A3.61236,3.61236,0,0,0,56.9769,3.4149ZM58.92035,56.977a1.945,1.945,0,0,1-1.943,1.94254H7.02241a1.945,1.945,0,0,1-1.943-1.94254L5.079,13.40611h53.84Zm0-45.23611H5.07919V7.02321a1.945,1.945,0,0,1,1.943-1.94255H56.97713a1.94505,1.94505,0,0,1,1.943,1.94255Z"/><path class="cls-1" d="M12.57226,52.09257H51.42547a.66621.66621,0,0,0,.66642-.66642V37.551a.66678.66678,0,0,0-.66642-.66642H12.57226a.66678.66678,0,0,0-.66642.66642V51.42729a.66726.66726,0,0,0,.66642.666Zm.66642-13.87517H50.75905V50.76087H13.23868Z"/><path class="cls-1" d="M34.77458,32.6671H51.42547a.66678.66678,0,0,0,.66642-.66642V20.89929a.6665.6665,0,0,0-.66642-.66642l-16.65089.00045a.66621.66621,0,0,0-.66642.66642l.00044,11.10093a.66641.66641,0,0,0,.666.66642Zm.666-11.10138H50.75974v9.76854H35.44056Z"/><path class="cls-1" d="M12.57226,22.12006H29.22315a.66664.66664,0,0,0,0-1.33328H12.57226a.66664.66664,0,0,0,0,1.33328Z"/><path class="cls-1" d="M12.57226,25.45047H29.22315a.666.666,0,1,0,0-1.332H12.57226a.666.666,0,1,0,0,1.332Z"/><path class="cls-1" d="M12.57226,28.78087H29.22315a.66642.66642,0,1,0,0-1.33284H12.57226a.66642.66642,0,0,0,0,1.33284Z"/><path class="cls-1" d="M12.57226,32.11128H29.22315a.666.666,0,1,0,0-1.332H12.57226a.666.666,0,1,0,0,1.332Z"/><path class="cls-1" d="M54.20232,7.57733H34.77458a.833.833,0,0,0,0,1.66606H54.20232a.833.833,0,0,0,0-1.66606Z"/></svg>