<svg id="Layer_1" data-name="Layer 1" xmlns="http://www.w3.org/2000/svg" viewBox="0 0 64 64"><defs><style>.cls-1{fill:#f26c4f;}</style></defs><path class="cls-1" d="M18.44559,17.99394,4.43949,31.99946,18.445,46.005a1.689,1.689,0,1,1-2.38854,2.38854L.85668,33.19373a1.68938,1.68938,0,0,1,0-2.38854L16.05647,15.6054A1.689,1.689,0,0,1,18.445,17.99394Z"/><path class="cls-1" d="M45.55558,46.005,59.5611,31.99946,45.555,17.99394a1.68895,1.68895,0,0,1,2.38853-2.38854L63.14332,30.80519a1.68938,1.68938,0,0,1,0,2.38854L47.94353,48.39352A1.689,1.689,0,1,1,45.555,46.005Z"/><path class="cls-1" d="M27.44116,51.49824a1.12825,1.12825,0,0,1-2.16487-.63648L36.55884,12.50188a1.12825,1.12825,0,0,1,2.16487.63648Z"/><path class="cls-1" d="M26.36135,52.94714a1.77752,1.77752,0,0,1-.501-.07229A1.76779,1.76779,0,0,1,24.664,50.68144L35.94631,12.32167a1.7667,1.7667,0,0,1,3.38982.997L28.05252,51.6772a1.76688,1.76688,0,0,1-1.69117,1.26994ZM37.64,12.32977a.49232.49232,0,0,0-.46984.35207L25.88778,51.04161a.49153.49153,0,0,0,.33275.60942.47462.47462,0,0,0,.37263-.03988.493.493,0,0,0,.23554-.29287L38.1123,12.95851a.49052.49052,0,0,0-.33275-.6088A.51415.51415,0,0,0,37.64,12.32977Z"/></svg>