<svg id="Layer_1" data-name="Layer 1" xmlns="http://www.w3.org/2000/svg" viewBox="0 0 64 64"><defs><style>.cls-1{fill:#f26c4f;fill-rule:evenodd;}</style></defs><path class="cls-1" d="M22.60246,20.27191a9.1107,9.1107,0,1,1,0-18.22139H40.75192a9.1107,9.1107,0,0,1,0,18.22139Z"/><path class="cls-1" d="M22.36161,41.1293h9.276V22.90281h-9.276a9.11325,9.11325,0,0,0,0,18.22649"/><path class="cls-1" d="M41.635,23.08942a9.1107,9.1107,0,1,0,9.11151,9.11151A9.11187,9.11187,0,0,0,41.635,23.08942"/><path class="cls-1" d="M31.6224,43.72766H22.18411v.01823a9.105,9.105,0,1,0,9.43319,9.55653h.00508V53.199c.00467-.11994.0178-.23817.0178-.3598,0-.12121-.01313-.23944-.0178-.36107Z"/></svg>