<?xml version="1.0" encoding="utf-8"?>
<!-- Generator: Adobe Illustrator 25.3.0, SVG Export Plug-In . SVG Version: 6.00 Build 0)  -->
<svg version="1.1" id="Layer_1" xmlns="http://www.w3.org/2000/svg" xmlns:xlink="http://www.w3.org/1999/xlink" x="0px" y="0px"
	 viewBox="0 0 176 40" style="enable-background:new 0 0 176 40;" xml:space="preserve">
<style type="text/css">
	.st0{fill:#F26C4F;}
	.st1{fill:#FFFFFF;}
</style>
<rect x="0.3" y="56.2" class="st0" width="176" height="40"/>
<g>
	<g>
		<path class="st1" d="M51.1,28.8h-1.6c-2.5,0-2.2,0-3.5-5.2C45.4,21,42.9,21,42,21h-1.1v5.4c0,1.7,0.4,2,1.4,2v0.3h-4.6v-0.3
			c1,0,1.4-0.3,1.4-2.5v-12c0-1.5-0.3-1.7-1.4-1.7V12h3.9c4.8,0,7,0.6,7,4.6c0,3.4-1.9,4.3-4.3,4.4c1.6,0.2,3.1-0.1,4.4,5.6
			c0.4,1.8,1.8,2,2.5,2v0.2H51.1z M41.6,12.2h-0.7v8.6h0.7c2.9,0,5,0,5-4.3C46.6,12,44.3,12.2,41.6,12.2z"/>
		<path class="st1" d="M61.1,27.3l0.2,0.1c-0.1,0.7-0.8,1.6-1.9,1.6c0,0-1.8,0.1-1.8-2.1c-0.3,1.2-1.7,2.1-3.4,2.1
			c0,0-2.7,0-2.7-2.5c0-2.3,2-2.9,6.1-4v-1.3c0-2.5-1.2-3.9-3.2-3c-1,0.5-1.2,1-1.1,1c0.2,0,0.5,0.1,0.6,0.4
			c0.4,0.4,0.3,1.1-0.2,1.4c-0.4,0.3-1,0.3-1.4-0.2c-0.2-0.3-0.3-0.7-0.1-1c0.1-0.3,0.6-1.1,1.9-1.8c1-0.5,2.1-0.5,2.1-0.5
			c2.3,0,3,1.9,3,4.8v4.3c0,0,0,1.4,1,1.4C60.4,28,61,28,61.1,27.3z M53.2,26.1c0,1,0.6,2,2.1,2s2.1-1.1,2.4-1.6v-3.7
			C54.6,23.5,53.2,24.5,53.2,26.1z"/>
		<path class="st1" d="M67.4,13.6c-0.5-0.2-0.8-0.8-0.6-1.3c0.1-0.3,0.3-0.5,0.5-0.5c0.2-0.1-0.2-0.4-0.8-0.4
			c-1.2,0-1.9,1.1-1.9,6.5h2.7v0.3h-2.7V27c0,1.2,0.4,1.3,1.2,1.5v0.2H62v-0.2c1-0.1,1-0.3,1-1.5v-9h-1.5v-0.3H63
			c0-5,0.9-6.7,3.6-6.7c1,0,1.8,0.5,2,0.8s0.3,0.8,0.2,1.1C68.6,13.5,68,13.7,67.4,13.6z"/>
		<path class="st1" d="M78,27.3l0.2,0.1c-0.1,0.7-0.8,1.6-1.9,1.6c0,0-1.8,0.1-1.8-2.1c-0.3,1.2-1.7,2.1-3.4,2.1c0,0-2.7,0-2.7-2.5
			c0-2.3,2-2.9,6.1-4v-1.3c0-2.5-1.2-3.9-3.2-3c-1,0.5-1.2,1-1.1,1c0.2,0,0.5,0.1,0.6,0.4c0.4,0.4,0.3,1.1-0.2,1.4
			c-0.4,0.3-1,0.3-1.4-0.2c-0.2-0.3-0.3-0.7-0.1-1c0.1-0.3,0.6-1.1,1.9-1.8c1-0.5,2.1-0.5,2.1-0.5c2.3,0,3,1.9,3,4.8v4.3
			c0,0,0,1.4,1,1.4C77.2,28,77.8,28,78,27.3z M70,26.1c0,1,0.6,2,2.1,2s2.1-1.1,2.4-1.6v-3.7C71.5,23.5,70,24.5,70,26.1z"/>
		<path class="st1" d="M87.9,26c-0.2,1.1-1.5,3-4.1,3c-2.9,0-5-2.3-5-5.6c0-3.6,2.2-5.9,5-5.9c2.5,0,4.5,1.7,4.5,5.5h-7.6
			c0,3.7,1.6,5,3.6,5.1c1.5,0.1,3.1-1,3.5-2.2L87.9,26z M86.7,22.7c0-3.7-1.8-5-2.9-5c-1.4,0-3.1,1.6-3.1,5H86.7z"/>
		<path class="st1" d="M93.1,28.8h-3.6v-0.3c0.9-0.3,1-0.4,1-1.6V13.3c0-0.8-0.2-1.2-1.2-1.3v-0.3l2.8-0.5v15.7c0,1.3,0.1,1.4,1,1.6
			C93.1,28.5,93.1,28.8,93.1,28.8z"/>
		<path class="st1" d="M118.5,28.5v0.3h-5.6v-0.3c1,0,1.7-0.4,1.7-2.5V12.8L109.1,29h-0.3l-6.6-14.8v8.6c0,4.1,0.6,5.6,3,5.6v0.3
			h-6.5v-0.3c2.6,0,3.3-1.6,3.3-5.6v-9.1c-0.9-1.5-2.1-1.5-2.7-1.6V12h4.1l6.4,14.2l4.8-14.2h3.7v0.3c-1,0-1.8,0.4-1.8,2.1V26
			C116.5,28.1,117.4,28.5,118.5,28.5z"/>
		<path class="st1" d="M128.4,26c-0.2,1.1-1.5,3-4.1,3c-2.9,0-5-2.3-5-5.6c0-3.6,2.2-5.9,5-5.9c2.5,0,4.5,1.7,4.5,5.5h-7.6
			c0,3.7,1.6,5,3.6,5.1c1.5,0.1,3.1-1,3.5-2.2L128.4,26z M127.2,22.7c0-3.7-1.8-5-2.9-5c-1.4,0-3.1,1.6-3.1,5H127.2z"/>
		<path class="st1" d="M140.2,28.8h-3.6v-0.2c0.9-0.3,1-0.4,1-1.6v-5.4c0-1.9-1-3.1-2.7-3.1c-1.4,0-2.3,1.3-2.6,2.1V27
			c0,1.3,0.1,1.4,1,1.6v0.3h-3.6v-0.3c0.9-0.3,1-0.4,1-1.6v-7.3c0-0.8-0.2-1.2-1.2-1.3v-0.2l2.8-0.5V20c0.5-1.3,2-2.5,3.5-2.5
			c2,0,3.4,1,3.4,3.9v5.5c0,1.3,0.1,1.4,1,1.6L140.2,28.8L140.2,28.8z"/>
		<path class="st1" d="M152.4,28.6l-2.2,0.4c-0.7,0.1-0.7-0.4-0.7-0.4v-1.2c-0.7,1.1-2.2,1.7-3.4,1.7c-3.4,0-5-2.7-5-5.9
			c0-3.7,2.4-5.6,5.5-5.6c1.2,0,2.2,0.4,3,1v-5.2c0-0.8-0.2-1.2-1.2-1.3v-0.3l2.8-0.5v15.9c0,1.2,0.3,1.2,1.2,1.2L152.4,28.6
			L152.4,28.6z M149.6,21c0-2-1.4-3.2-2.9-3.2s-3.5,1-3.5,4.9c0,3.7,1.4,5.6,3.6,5.6c1.6,0,2.8-1.1,2.8-2.8L149.6,21L149.6,21z"/>
		<path class="st1" d="M162.1,26c-0.2,1.1-1.5,3-4.1,3c-2.9,0-5-2.3-5-5.6c0-3.6,2.2-5.9,5-5.9c2.5,0,4.5,1.7,4.5,5.5h-7.6
			c0,3.7,1.6,5,3.6,5.1c1.5,0.1,3.1-1,3.5-2.2L162.1,26z M160.8,22.7c0-3.7-1.8-5-2.9-5c-1.4,0-3.1,1.6-3.1,5H160.8z"/>
		<path class="st1" d="M168.1,29c-2.9,0-4.1-0.9-4.1-0.9v-3.4h0.2c0.1,1.9,0.6,4,3.9,4c2.9,0,2.3-2.7,0.5-3.9l-2.4-1.5
			c-2.3-1.6-2.7-2.8-2-4.3c0,0,0.6-1.5,3.1-1.5c2.7,0,3.9,0.8,3.9,0.8v3H171c-0.1-1.7-0.7-3.5-3.7-3.5c-2.6,0-2.5,2.4-0.5,3.7
			l2.4,1.5c2.2,1.3,2.8,3.2,1.7,4.8C170.9,27.9,170.2,29,168.1,29z"/>
	</g>
	<g>
		<g>
			<path class="st0" d="M15.4,26.3v1.6L4.5,20.6v-1.2l10.8-7.2v1.6L6.1,20L15.4,26.3z"/>
			<path class="st0" d="M15.6,28.3L4.3,20.7v-1.5l11.3-7.6v2.2L15.5,14l-8.9,6l9.1,6.1v2.2H15.6z M4.8,20.5l10.3,6.9v-1L5.7,20
				l9.5-6.3v-1L4.8,19.5V20.5z"/>
		</g>
		<g>
			<path class="st0" d="M17.6,28h-1l5.1-16h1L17.6,28z"/>
			<path class="st0" d="M17.8,28.3h-1.5l5.3-16.6h1.5L17.8,28.3z M17,27.8h0.5l4.9-15.5h-0.5L17,27.8z"/>
		</g>
		<g>
			<path class="st0" d="M33.5,20l-9.3-6.2v-1.6L35,19.4v1.2l-10.8,7.2v-1.6L33.5,20z"/>
			<path class="st0" d="M24,28.3v-2.2l9-6.1l-9-6.1v-2.2l11.3,7.6v1.5L24,28.3z M24.5,26.4v1l10.3-6.9v-0.9l-10.3-6.9v1L34,20
				L24.5,26.4z"/>
		</g>
	</g>
</g>
</svg>
