<svg id="Layer_1" data-name="Layer 1" xmlns="http://www.w3.org/2000/svg" viewBox="0 0 176 40"><defs><style>.cls-1{fill:#f26c4f;}.cls-2{fill:#fff;}</style></defs><rect class="cls-1" width="176" height="40"/><path class="cls-2" d="M51.13,28.77H49.51c-2.49,0-2.25,0-3.47-5.21C45.45,21,42.92,21,42,21H40.86v5.44c0,1.67.43,2,1.44,2v.27H37.73V28.5c1,0,1.36-.28,1.36-2.51V13.89c0-1.48-.31-1.68-1.36-1.68V12H41.6c4.76,0,7,.57,7,4.56,0,3.39-1.91,4.33-4.35,4.4,1.6.16,3.08-.1,4.37,5.59a2.4,2.4,0,0,0,2.46,2ZM41.6,12.21h-.74v8.55h.74c2.92,0,5,0,5-4.25C46.62,12.05,44.28,12.21,41.6,12.21Z"/><path class="cls-2" d="M61.14,27.28l.24.1A2,2,0,0,1,59.47,29a1.85,1.85,0,0,1-1.84-2.05A3.33,3.33,0,0,1,54.26,29s-2.7,0-2.7-2.48c0-2.27,2-2.94,6.07-4V21.17c0-2.46-1.17-3.92-3.2-3-1,.48-1.2,1-1,1a1.1,1.1,0,0,1,.64.36,1,1,0,0,1-.17,1.41.93.93,0,0,1-1.36-.17,1,1,0,0,1-.14-1A4,4,0,0,1,54.21,18a5,5,0,0,1,2.15-.45c2.34,0,3,1.93,3,4.77v4.3s0,1.43,1,1.43A.84.84,0,0,0,61.14,27.28Zm-7.93-1.21a1.93,1.93,0,0,0,2,2,2.53,2.53,0,0,0,2.37-1.63v-3.7C54.64,23.49,53.21,24.51,53.21,26.07Z"/><path class="cls-2" d="M67.42,13.55a1,1,0,0,1-.6-1.34.86.86,0,0,1,.5-.52c.19-.07-.19-.43-.79-.43-1.24,0-1.91,1.05-1.91,6.47h2.73l0,.26H64.62v9.06c0,1.24.39,1.33,1.25,1.48v.24H62v-.24c.91-.17.94-.34.94-1.48V18H61.45l0-.26H63c0-5,.88-6.71,3.55-6.71a2.86,2.86,0,0,1,2,.76,1.37,1.37,0,0,1,.22,1.15A1.06,1.06,0,0,1,67.42,13.55Z"/><path class="cls-2" d="M78,27.28l.24.1A2,2,0,0,1,76.3,29a1.85,1.85,0,0,1-1.84-2.05A3.31,3.31,0,0,1,71.1,29s-2.7,0-2.7-2.48c0-2.27,2-2.94,6.06-4V21.17c0-2.46-1.17-3.92-3.2-3-1,.48-1.19,1-1.05,1a1.09,1.09,0,0,1,.65.36,1,1,0,0,1-.17,1.41.93.93,0,0,1-1.36-.17,1,1,0,0,1-.15-1A4,4,0,0,1,71.05,18a5,5,0,0,1,2.15-.45c2.34,0,3,1.93,3,4.77v4.3s0,1.43,1,1.43A.83.83,0,0,0,78,27.28ZM70,26.07a1.94,1.94,0,0,0,2.06,2,2.5,2.5,0,0,0,2.36-1.63v-3.7C71.48,23.49,70,24.51,70,26.07Z"/><path class="cls-2" d="M87.93,26a4,4,0,0,1-4.08,3c-2.89,0-5-2.27-5-5.61,0-3.61,2.22-5.85,5-5.85,2.46,0,4.49,1.74,4.49,5.51H80.67c0,3.66,1.6,5,3.61,5.09a3.61,3.61,0,0,0,3.46-2.22Zm-1.24-3.22c0-3.71-1.84-5-2.89-5-1.36,0-3.13,1.62-3.13,5Z"/><path class="cls-2" d="M93.07,28.77H89.48V28.5c.91-.26,1-.38,1-1.6V13.29c0-.84-.19-1.17-1.2-1.27v-.26l2.85-.52V26.9c0,1.32.12,1.39,1,1.6Z"/><path class="cls-2" d="M118.45,28.5v.27h-5.56V28.5c1,0,1.72-.38,1.72-2.48V12.76L109.14,29h-.27l-6.63-14.76v8.65c0,4.13.62,5.63,3,5.63v.27H98.7V28.5c2.63,0,3.27-1.6,3.27-5.63v-9.1a2.84,2.84,0,0,0-2.65-1.56V12h4.13l6.4,14.24L114.61,12h3.72v.26c-1,0-1.84.41-1.84,2.11V26C116.49,28.12,117.43,28.5,118.45,28.5Z"/><path class="cls-2" d="M128.43,26a4,4,0,0,1-4.08,3c-2.89,0-5-2.27-5-5.61,0-3.61,2.23-5.85,5-5.85,2.46,0,4.49,1.74,4.49,5.51h-7.65c0,3.66,1.6,5,3.61,5.09a3.61,3.61,0,0,0,3.46-2.22Zm-1.24-3.22c0-3.71-1.84-5-2.89-5-1.36,0-3.13,1.62-3.13,5Z"/><path class="cls-2" d="M140.23,28.77h-3.56v-.24c.91-.27,1-.41,1-1.63V21.5c0-1.86-1-3.08-2.73-3.08a3.1,3.1,0,0,0-2.62,2.11V26.9c0,1.32.12,1.39,1,1.6v.27h-3.59V28.5c.91-.26,1-.38,1-1.6V19.62c0-.84-.19-1.17-1.19-1.32v-.23l2.84-.55V20a4,4,0,0,1,3.53-2.46c2,0,3.44,1,3.44,3.89V26.9c0,1.32.12,1.41,1,1.63Z"/><path class="cls-2" d="M152.41,28.55l-2.17.41c-.67.12-.67-.43-.67-.43V27.31A4.21,4.21,0,0,1,146.13,29c-3.44,0-5-2.75-5-5.85,0-3.66,2.36-5.61,5.47-5.61a4.91,4.91,0,0,1,3,.95V13.31c0-.83-.24-1.19-1.22-1.29v-.26l2.84-.52V27.12c0,1.17.27,1.24,1.22,1.19ZM149.57,21a3,3,0,0,0-2.89-3.2c-1.51,0-3.51,1-3.51,4.94,0,3.75,1.41,5.64,3.56,5.64a2.75,2.75,0,0,0,2.84-2.8Z"/><path class="cls-2" d="M162.08,26A4,4,0,0,1,158,29c-2.89,0-5-2.27-5-5.61,0-3.61,2.22-5.85,5-5.85,2.46,0,4.49,1.74,4.49,5.51h-7.64c.05,3.66,1.6,5,3.61,5.09a3.61,3.61,0,0,0,3.46-2.22Zm-1.24-3.22c0-3.71-1.84-5-2.89-5-1.36,0-3.13,1.62-3.13,5Z"/><path class="cls-2" d="M168.05,29a7.45,7.45,0,0,1-4.11-.88V24.73h.24c.1,1.91.6,4,3.87,4,2.94,0,2.32-2.75.5-3.94l-2.41-1.46c-2.27-1.58-2.74-2.77-2-4.35,0,0,.62-1.45,3.06-1.45a7.51,7.51,0,0,1,3.89.76v3h-.24c-.09-1.67-.71-3.53-3.65-3.53-2.6,0-2.53,2.44-.45,3.75L169.2,23c2.17,1.34,2.84,3.23,1.72,4.83A3.43,3.43,0,0,1,168.05,29Z"/><path class="cls-2" d="M15.36,26.26v1.56L4.55,20.6V19.4l10.81-7.22v1.61L6.1,20Z"/><path class="cls-2" d="M15.61,28.29,4.29,20.73V19.27l11.32-7.56v2.22L15.5,14,6.55,20l9.06,6.14ZM4.79,20.46l10.32,6.89v-1L5.65,20l9.46-6.32v-1L4.79,19.54Z"/><path class="cls-2" d="M17.62,28h-1L21.71,12h1Z"/><path class="cls-2" d="M17.81,28.29H16.26l5.26-16.58h1.55ZM17,27.77h.47l4.92-15.54h-.47Z"/><path class="cls-2" d="M33.49,20l-9.26-6.2V12.18L35.05,19.4v1.2L24.23,27.82V26.26Z"/><path class="cls-2" d="M24,28.29V26.13L33,20,24,13.93V11.71L35.3,19.27v1.46Zm.5-1.89v1L34.8,20.46v-.92L24.48,12.65v1L33.94,20Z"/></svg>