<svg id="Layer_1" data-name="Layer 1" xmlns="http://www.w3.org/2000/svg" viewBox="0 0 64 64"><defs><style>.cls-1{fill:#f26c4f;}</style></defs><path class="cls-1" d="M12,8.41a1.67,1.67,0,1,1-1.67-1.67A1.67,1.67,0,0,1,12,8.41"/><path class="cls-1" d="M17.49,8.41a1.67,1.67,0,1,1-1.66-1.67,1.67,1.67,0,0,1,1.66,1.67"/><path class="cls-1" d="M23,8.41a1.67,1.67,0,1,1-1.67-1.67A1.67,1.67,0,0,1,23,8.41"/><path class="cls-1" d="M57,3.41H7A3.61,3.61,0,0,0,3.41,7V57A3.61,3.61,0,0,0,7,60.59H57A3.61,3.61,0,0,0,60.59,57V7A3.61,3.61,0,0,0,57,3.41ZM58.92,57A1.94,1.94,0,0,1,57,58.92H7A1.94,1.94,0,0,1,5.08,57V13.41H58.92Zm0-45.24H5.08V7A1.94,1.94,0,0,1,7,5.08H57A1.94,1.94,0,0,1,58.92,7Z"/><path class="cls-1" d="M12.57,52.09H51.43a.67.67,0,0,0,.66-.66V37.55a.67.67,0,0,0-.66-.67H12.57a.66.66,0,0,0-.66.67V51.43a.66.66,0,0,0,.66.66Zm.67-13.87H50.76V50.76H13.24Z"/><path class="cls-1" d="M34.77,32.67H51.43a.67.67,0,0,0,.66-.67V20.9a.67.67,0,0,0-.66-.67H34.77a.67.67,0,0,0-.66.67V32a.67.67,0,0,0,.66.67Zm.67-11.1H50.76v9.76H35.44Z"/><path class="cls-1" d="M12.57,22.12H29.22a.67.67,0,1,0,0-1.33H12.57a.66.66,0,0,0-.66.66A.67.67,0,0,0,12.57,22.12Z"/><path class="cls-1" d="M12.57,25.45H29.22a.67.67,0,1,0,0-1.33H12.57a.66.66,0,0,0-.66.66A.67.67,0,0,0,12.57,25.45Z"/><path class="cls-1" d="M12.57,28.78H29.22a.67.67,0,1,0,0-1.33H12.57a.66.66,0,0,0-.66.66A.67.67,0,0,0,12.57,28.78Z"/><path class="cls-1" d="M12.57,32.11H29.22a.67.67,0,1,0,0-1.33H12.57a.66.66,0,0,0-.66.66A.67.67,0,0,0,12.57,32.11Z"/><path class="cls-1" d="M54.2,7.58H34.77a.83.83,0,1,0,0,1.66H54.2a.83.83,0,0,0,0-1.66Z"/></svg>